<svg xmlns="http://www.w3.org/2000/svg" viewBox="-170 -90 1420 2400" width="1420" height="2400" font-family="'IBM Plex Sans','IBM Plex Sans Arabic',-apple-system,'Helvetica Neue',Arial,sans-serif">
<title>Recommended — ground floor, side-corridor variant</title>
<defs>
<pattern id="terrace" width="28" height="28" patternUnits="userSpaceOnUse" patternTransform="rotate(45)"><line x1="0" y1="0" x2="0" y2="28" stroke="#b7c4ca" stroke-width="2"/></pattern>
<pattern id="well" width="20" height="20" patternUnits="userSpaceOnUse"><line x1="0" y1="10" x2="20" y2="10" stroke="#b7c4ca" stroke-width="1.5"/><line x1="10" y1="0" x2="10" y2="20" stroke="#b7c4ca" stroke-width="1.5"/></pattern>
</defs>
<rect x="-170" y="-90" width="1420" height="2400" fill="#fff"/>
<g id="fill" >
<rect x="25" y="25" width="515" height="405" fill="url(#well)"/>
</g>
<g id="wall" >
<rect x="0" y="0" width="25" height="2150" fill="#000"/>
<rect x="1045" y="0" width="25" height="2150" fill="#000"/>
<rect x="0" y="0" width="1070" height="25" fill="#000"/>
<rect x="540" y="0" width="25" height="455" fill="#000"/>
<rect x="0" y="430" width="565" height="25" fill="#000"/>
<rect x="245" y="430" width="15" height="520" fill="#000"/>
<rect x="565" y="445" width="480" height="10" fill="#000"/>
<rect x="700" y="640" width="10" height="310" fill="#000"/>
<rect x="680" y="630" width="365" height="10" fill="#000"/>
<rect x="680" y="455" width="10" height="175" fill="#000"/>
<rect x="790" y="455" width="10" height="175" fill="#000"/>
<rect x="175" y="950" width="895" height="20" fill="#000"/>
<rect x="175" y="970" width="15" height="1180" fill="#000"/>
<rect x="610" y="970" width="15" height="1180" fill="#000"/>
<rect x="25" y="2135" width="150" height="15" fill="#000"/>
<rect x="190" y="2135" width="420" height="15" fill="#000"/>
<rect x="190" y="1200" width="420" height="10" fill="#000"/>
<rect x="310" y="970" width="10" height="230" fill="#000"/>
<rect x="625" y="2135" width="420" height="15" fill="#000"/>
<rect x="625" y="1200" width="420" height="10" fill="#000"/>
<rect x="745" y="970" width="10" height="230" fill="#000"/>
<rect x="3" y="3" width="19" height="2144" fill="#fff"/>
<rect x="1048" y="3" width="19" height="2144" fill="#fff"/>
<rect x="3" y="3" width="1064" height="19" fill="#fff"/>
<rect x="543" y="3" width="19" height="449" fill="#fff"/>
<rect x="3" y="433" width="559" height="19" fill="#fff"/>
<rect x="248" y="433" width="9" height="514" fill="#fff"/>
<rect x="568" y="448" width="474" height="4" fill="#fff"/>
<rect x="703" y="643" width="4" height="304" fill="#fff"/>
<rect x="683" y="633" width="359" height="4" fill="#fff"/>
<rect x="683" y="458" width="4" height="169" fill="#fff"/>
<rect x="793" y="458" width="4" height="169" fill="#fff"/>
<rect x="178" y="953" width="889" height="14" fill="#fff"/>
<rect x="178" y="973" width="9" height="1174" fill="#fff"/>
<rect x="613" y="973" width="9" height="1174" fill="#fff"/>
<rect x="28" y="2138" width="144" height="9" fill="#fff"/>
<rect x="193" y="2138" width="414" height="9" fill="#fff"/>
<rect x="193" y="1203" width="414" height="4" fill="#fff"/>
<rect x="313" y="973" width="4" height="224" fill="#fff"/>
<rect x="628" y="2138" width="414" height="9" fill="#fff"/>
<rect x="628" y="1203" width="414" height="4" fill="#fff"/>
<rect x="748" y="973" width="4" height="224" fill="#fff"/>
</g>
<g id="open" fill="#fff">
<rect x="244" y="850" width="17" height="90"/>
<rect x="270" y="429" width="260" height="27"/>
<rect x="590" y="444" width="90" height="12"/>
<rect x="539" y="25" width="27" height="405"/>
<rect x="699" y="830" width="12" height="90"/>
<rect x="679" y="550" width="12" height="70"/>
<rect x="830" y="629" width="80" height="12"/>
<rect x="40" y="429" width="190" height="27"/>
<rect x="45" y="2134" width="110" height="17"/>
<rect x="190" y="2134" width="155" height="17"/>
<rect x="455" y="2134" width="155" height="17"/>
<rect x="345" y="2134" width="110" height="17"/>
<rect x="210" y="1199" width="80" height="12"/>
<rect x="500" y="1199" width="90" height="12"/>
<rect x="625" y="2134" width="155" height="17"/>
<rect x="890" y="2134" width="155" height="17"/>
<rect x="780" y="2134" width="110" height="17"/>
<rect x="645" y="1199" width="80" height="12"/>
<rect x="935" y="1199" width="90" height="12"/>
</g>
<g id="glass" fill="none" stroke="#000" stroke-width="1.4">
<line x1="270" y1="430" x2="530" y2="430"/><line x1="270" y1="442.5" x2="530" y2="442.5"/><line x1="270" y1="455" x2="530" y2="455"/>
<line x1="540" y1="25" x2="540" y2="430"/><line x1="552.5" y1="25" x2="552.5" y2="430"/><line x1="565" y1="25" x2="565" y2="430"/>
<line x1="40" y1="430" x2="230" y2="430"/><line x1="40" y1="442.5" x2="230" y2="442.5"/><line x1="40" y1="455" x2="230" y2="455"/>
<line x1="190" y1="2135" x2="345" y2="2135"/><line x1="190" y1="2142.5" x2="345" y2="2142.5"/><line x1="190" y1="2150" x2="345" y2="2150"/>
<line x1="455" y1="2135" x2="610" y2="2135"/><line x1="455" y1="2142.5" x2="610" y2="2142.5"/><line x1="455" y1="2150" x2="610" y2="2150"/>
<line x1="625" y1="2135" x2="780" y2="2135"/><line x1="625" y1="2142.5" x2="780" y2="2142.5"/><line x1="625" y1="2150" x2="780" y2="2150"/>
<line x1="890" y1="2135" x2="1045" y2="2135"/><line x1="890" y1="2142.5" x2="1045" y2="2142.5"/><line x1="890" y1="2150" x2="1045" y2="2150"/>
</g>
<g id="door" fill="none" stroke="#000" stroke-width="1.4">
<line x1="245" y1="850" x2="260" y2="850"/><line x1="245" y1="940" x2="260" y2="940"/>
<line x1="270" y1="430" x2="270" y2="455"/><line x1="530" y1="430" x2="530" y2="455"/>
<line x1="590" y1="445" x2="590" y2="455"/><line x1="680" y1="445" x2="680" y2="455"/>
<line x1="540" y1="25" x2="565" y2="25"/><line x1="540" y1="430" x2="565" y2="430"/>
<line x1="700" y1="830" x2="710" y2="830"/><line x1="700" y1="920" x2="710" y2="920"/>
<line x1="680" y1="550" x2="690" y2="550"/><line x1="680" y1="620" x2="690" y2="620"/>
<line x1="830" y1="630" x2="830" y2="640"/><line x1="910" y1="630" x2="910" y2="640"/>
<line x1="40" y1="430" x2="40" y2="455"/><line x1="230" y1="430" x2="230" y2="455"/>
<line x1="45" y1="2135" x2="45" y2="2150"/><line x1="155" y1="2135" x2="155" y2="2150"/>
<line x1="190" y1="2135" x2="190" y2="2150"/><line x1="345" y1="2135" x2="345" y2="2150"/>
<line x1="455" y1="2135" x2="455" y2="2150"/><line x1="610" y1="2135" x2="610" y2="2150"/>
<line x1="345" y1="2135" x2="345" y2="2150"/><line x1="455" y1="2135" x2="455" y2="2150"/>
<line x1="210" y1="1200" x2="210" y2="1210"/><line x1="290" y1="1200" x2="290" y2="1210"/>
<line x1="500" y1="1200" x2="500" y2="1210"/><line x1="590" y1="1200" x2="590" y2="1210"/>
<line x1="625" y1="2135" x2="625" y2="2150"/><line x1="780" y1="2135" x2="780" y2="2150"/>
<line x1="890" y1="2135" x2="890" y2="2150"/><line x1="1045" y1="2135" x2="1045" y2="2150"/>
<line x1="780" y1="2135" x2="780" y2="2150"/><line x1="890" y1="2135" x2="890" y2="2150"/>
<line x1="645" y1="1200" x2="645" y2="1210"/><line x1="725" y1="1200" x2="725" y2="1210"/>
<line x1="935" y1="1200" x2="935" y2="1210"/><line x1="1025" y1="1200" x2="1025" y2="1210"/>
</g>
<g id="furn" fill="#fff" stroke="#000" stroke-width="1.2" stroke-linejoin="round">
<rect x="45" y="45" width="475" height="40" rx="4" />
<rect x="45" y="345" width="475" height="40" rx="4" />
<g stroke="#3e8a4a" fill="#dcefd9"><circle cx="90" cy="65" r="26"/><circle cx="90" cy="65" r="11.700000000000001" fill="none" stroke-width="1.5"/></g>
<g stroke="#3e8a4a" fill="#dcefd9"><circle cx="170" cy="65" r="22"/><circle cx="170" cy="65" r="9.9" fill="none" stroke-width="1.5"/></g>
<g stroke="#3e8a4a" fill="#dcefd9"><circle cx="250" cy="65" r="28"/><circle cx="250" cy="65" r="12.6" fill="none" stroke-width="1.5"/></g>
<g stroke="#3e8a4a" fill="#dcefd9"><circle cx="330" cy="65" r="22"/><circle cx="330" cy="65" r="9.9" fill="none" stroke-width="1.5"/></g>
<g stroke="#3e8a4a" fill="#dcefd9"><circle cx="410" cy="65" r="27"/><circle cx="410" cy="65" r="12.15" fill="none" stroke-width="1.5"/></g>
<g stroke="#3e8a4a" fill="#dcefd9"><circle cx="480" cy="65" r="22"/><circle cx="480" cy="65" r="9.9" fill="none" stroke-width="1.5"/></g>
<g stroke="#3e8a4a" fill="#dcefd9"><circle cx="90" cy="365" r="24"/><circle cx="90" cy="365" r="10.8" fill="none" stroke-width="1.5"/></g>
<g stroke="#3e8a4a" fill="#dcefd9"><circle cx="170" cy="365" r="28"/><circle cx="170" cy="365" r="12.6" fill="none" stroke-width="1.5"/></g>
<g stroke="#3e8a4a" fill="#dcefd9"><circle cx="250" cy="365" r="22"/><circle cx="250" cy="365" r="9.9" fill="none" stroke-width="1.5"/></g>
<g stroke="#3e8a4a" fill="#dcefd9"><circle cx="330" cy="365" r="27"/><circle cx="330" cy="365" r="12.15" fill="none" stroke-width="1.5"/></g>
<g stroke="#3e8a4a" fill="#dcefd9"><circle cx="410" cy="365" r="23"/><circle cx="410" cy="365" r="10.35" fill="none" stroke-width="1.5"/></g>
<g stroke="#3e8a4a" fill="#dcefd9"><circle cx="480" cy="365" r="26"/><circle cx="480" cy="365" r="11.700000000000001" fill="none" stroke-width="1.5"/></g>
<g stroke="#3e8a4a" fill="#dcefd9"><circle cx="70" cy="150" r="30"/><circle cx="70" cy="150" r="13.5" fill="none" stroke-width="1.5"/></g>
<g stroke="#3e8a4a" fill="#dcefd9"><circle cx="70" cy="260" r="34"/><circle cx="70" cy="260" r="15.3" fill="none" stroke-width="1.5"/></g>
<g stroke="#3e8a4a" fill="#dcefd9"><circle cx="500" cy="150" r="32"/><circle cx="500" cy="150" r="14.4" fill="none" stroke-width="1.5"/></g>
<g stroke="#3e8a4a" fill="#dcefd9"><circle cx="500" cy="260" r="30"/><circle cx="500" cy="260" r="13.5" fill="none" stroke-width="1.5"/></g>
<g stroke="#3e8a4a" fill="#dcefd9"><circle cx="285" cy="215" r="78"/><circle cx="285" cy="215" r="49.92" fill="none" stroke-width="1.5"/><circle cx="285" cy="215" r="21.840000000000003" fill="none" stroke-width="1.5"/></g>
<rect x="200" y="190" width="60" height="50" rx="8" />
<rect x="310" y="190" width="60" height="50" rx="8" />
<g transform="translate(930 917) rotate(0)"><rect x="-27" y="-18" width="54" height="36" rx="4"/><circle cx="0" cy="2" r="11"/></g>
<g transform="translate(740 495) rotate(0)"><rect x="-25" y="-38" width="50" height="18" rx="3"/><ellipse cx="0" cy="8" rx="19" ry="26"/></g>
<g transform="translate(765 588) rotate(90)"><rect x="-27" y="-18" width="54" height="36" rx="4"/><circle cx="0" cy="2" r="11"/></g>
<g transform="translate(1012 120) rotate(90)"><rect x="-27" y="-18" width="54" height="36" rx="4"/><circle cx="0" cy="2" r="11"/></g>
<rect x="25.0" y="575" width="105.0" height="255" fill="none"/>
<line x1="25.0" y1="602" x2="130.0" y2="602"/>
<line x1="25.0" y1="629" x2="130.0" y2="629"/>
<line x1="25.0" y1="656" x2="130.0" y2="656"/>
<line x1="25.0" y1="683" x2="130.0" y2="683"/>
<line x1="25.0" y1="710" x2="130.0" y2="710"/>
<line x1="25.0" y1="737" x2="130.0" y2="737"/>
<line x1="25.0" y1="764" x2="130.0" y2="764"/>
<line x1="25.0" y1="791" x2="130.0" y2="791"/>
<line x1="25.0" y1="818" x2="130.0" y2="818"/>
<rect x="140.0" y="575" width="105.0" height="255" fill="none"/>
<line x1="140.0" y1="602" x2="245.0" y2="602"/>
<line x1="140.0" y1="629" x2="245.0" y2="629"/>
<line x1="140.0" y1="656" x2="245.0" y2="656"/>
<line x1="140.0" y1="683" x2="245.0" y2="683"/>
<line x1="140.0" y1="710" x2="245.0" y2="710"/>
<line x1="140.0" y1="737" x2="245.0" y2="737"/>
<line x1="140.0" y1="764" x2="245.0" y2="764"/>
<line x1="140.0" y1="791" x2="245.0" y2="791"/>
<line x1="140.0" y1="818" x2="245.0" y2="818"/>
<line x1="25" y1="575" x2="245" y2="575"/>
<rect x="130.0" y="575" width="10" height="255" fill="#1c2a33"/>
<line x1="192.5" y1="870" x2="192.5" y2="605" stroke-width="3"/><path d="M180.5 627 L192.5 605 L204.5 627" fill="none" stroke-width="3"/>
<g transform="translate(250 1010) rotate(0)"><rect x="-25" y="-38" width="50" height="18" rx="3"/><ellipse cx="0" cy="8" rx="19" ry="26"/></g>
<g transform="translate(250 1165) rotate(180)"><rect x="-27" y="-18" width="54" height="36" rx="4"/><circle cx="0" cy="2" r="11"/></g>
<rect x="190" y="970" width="420" height="480" fill="none" stroke-dasharray="14 10"/>
<rect x="515" y="1220" width="90" height="300" fill="none"/>
<line x1="515" y1="1245" x2="605" y2="1245"/>
<line x1="515" y1="1270" x2="605" y2="1270"/>
<line x1="515" y1="1295" x2="605" y2="1295"/>
<line x1="515" y1="1320" x2="605" y2="1320"/>
<line x1="515" y1="1345" x2="605" y2="1345"/>
<line x1="515" y1="1370" x2="605" y2="1370"/>
<line x1="515" y1="1395" x2="605" y2="1395"/>
<line x1="515" y1="1420" x2="605" y2="1420"/>
<line x1="515" y1="1445" x2="605" y2="1445"/>
<line x1="515" y1="1470" x2="605" y2="1470"/>
<line x1="515" y1="1495" x2="605" y2="1495"/>
<line x1="560" y1="1560" x2="560" y2="1245" stroke-width="3"/><path d="M548 1265 L560 1245 L572 1265" fill="none" stroke-width="3"/>
<g transform="translate(685 1010) rotate(0)"><rect x="-25" y="-38" width="50" height="18" rx="3"/><ellipse cx="0" cy="8" rx="19" ry="26"/></g>
<g transform="translate(685 1165) rotate(180)"><rect x="-27" y="-18" width="54" height="36" rx="4"/><circle cx="0" cy="2" r="11"/></g>
<rect x="625" y="970" width="420" height="480" fill="none" stroke-dasharray="14 10"/>
<rect x="950" y="1220" width="90" height="300" fill="none"/>
<line x1="950" y1="1245" x2="1040" y2="1245"/>
<line x1="950" y1="1270" x2="1040" y2="1270"/>
<line x1="950" y1="1295" x2="1040" y2="1295"/>
<line x1="950" y1="1320" x2="1040" y2="1320"/>
<line x1="950" y1="1345" x2="1040" y2="1345"/>
<line x1="950" y1="1370" x2="1040" y2="1370"/>
<line x1="950" y1="1395" x2="1040" y2="1395"/>
<line x1="950" y1="1420" x2="1040" y2="1420"/>
<line x1="950" y1="1445" x2="1040" y2="1445"/>
<line x1="950" y1="1470" x2="1040" y2="1470"/>
<line x1="950" y1="1495" x2="1040" y2="1495"/>
<line x1="995" y1="1560" x2="995" y2="1245" stroke-width="3"/><path d="M983 1265 L995 1245 L1007 1265" fill="none" stroke-width="3"/>
</g>
<g id="text" >
<text x="285" y="315" font-size="22" font-weight="400" text-anchor="middle" fill="#1c2a33">منور مزروع</text>
<text x="560" y="800" font-size="26" font-weight="500" text-anchor="middle" fill="#1c2a33">عيادة أسنان</text>
<text x="560" y="830" font-size="22" font-weight="400" text-anchor="middle" fill="#1c2a33">area 66 m2</text>
<text x="660" y="900" font-size="22" font-weight="400" text-anchor="middle" fill="#1c2a33">انتظار</text>
<text x="880" y="800" font-size="22" font-weight="400" text-anchor="middle" fill="#1c2a33">علاج ١</text>
<text x="800" y="250" font-size="22" font-weight="400" text-anchor="middle" fill="#1c2a33">علاج ٢</text>
<text x="712" y="614" font-size="13" font-weight="500" text-anchor="middle" fill="#1c2a33">حمام</text>
<text x="920" y="600" font-size="22" font-weight="400" text-anchor="middle" fill="#1c2a33">مخزن</text>
<text x="135" y="900" font-size="22" font-weight="400" text-anchor="middle" fill="#1c2a33">درج</text>
<text x="400" y="1330" font-size="20" font-weight="400" text-anchor="middle" fill="#1c2a33">ميزانين فوق</text>
<text x="400" y="1640" font-size="26" font-weight="500" text-anchor="middle" fill="#1c2a33">محل ١</text>
<text x="400" y="1670" font-size="22" font-weight="400" text-anchor="middle" fill="#1c2a33">area 49.6 m2</text>
<text x="250" y="1090" font-size="20" font-weight="400" text-anchor="middle" fill="#1c2a33">حمام</text>
<text x="460" y="1090" font-size="20" font-weight="400" text-anchor="middle" fill="#1c2a33">مستودع</text>
<text x="835" y="1330" font-size="20" font-weight="400" text-anchor="middle" fill="#1c2a33">ميزانين فوق</text>
<text x="835" y="1640" font-size="26" font-weight="500" text-anchor="middle" fill="#1c2a33">محل ٢</text>
<text x="835" y="1670" font-size="22" font-weight="400" text-anchor="middle" fill="#1c2a33">area 49.6 m2</text>
<text x="685" y="1090" font-size="20" font-weight="400" text-anchor="middle" fill="#1c2a33">حمام</text>
<text x="895" y="1090" font-size="20" font-weight="400" text-anchor="middle" fill="#1c2a33">مستودع</text>
<text x="100" y="1560" font-size="22" font-weight="400" text-anchor="middle" fill="#1c2a33">ممر</text>
</g>
<g id="dim" fill="#000" stroke="#000" stroke-width="1">
<line x1="800" y1="480" x2="1045" y2="480"/><line x1="800" y1="470" x2="800" y2="490"/><line x1="1045" y1="470" x2="1045" y2="490"/><text x="922.5" y="472" font-size="20" text-anchor="middle">245</text>
<line x1="710" y1="665" x2="1045" y2="665"/><line x1="710" y1="655" x2="710" y2="675"/><line x1="1045" y1="655" x2="1045" y2="675"/><text x="877.5" y="657" font-size="20" text-anchor="middle">335</text>
<line x1="740" y1="640" x2="740" y2="950"/><line x1="730" y1="640" x2="750" y2="640"/><line x1="730" y1="950" x2="750" y2="950"/><text x="730" y="795.0" font-size="20" text-anchor="middle" transform="rotate(-90 730 795.0)">310</text>
<line x1="565" y1="50" x2="1045" y2="50"/><line x1="565" y1="40" x2="565" y2="60"/><line x1="1045" y1="40" x2="1045" y2="60"/><text x="805.0" y="42" font-size="20" text-anchor="middle">480</text>
<line x1="600" y1="25" x2="600" y2="445"/><line x1="590" y1="25" x2="610" y2="25"/><line x1="590" y1="445" x2="610" y2="445"/><text x="590" y="235.0" font-size="20" text-anchor="middle" transform="rotate(-90 590 235.0)">420</text>
<line x1="0" y1="2340" x2="1070" y2="2340"/><line x1="0" y1="2330" x2="0" y2="2350"/><line x1="1070" y1="2330" x2="1070" y2="2350"/><text x="535.0" y="2332" font-size="20" text-anchor="middle">1070</text>
<line x1="25" y1="2280" x2="175" y2="2280"/><line x1="25" y1="2270" x2="25" y2="2290"/><line x1="175" y1="2270" x2="175" y2="2290"/><text x="100.0" y="2272" font-size="20" text-anchor="middle">150</text>
<line x1="190" y1="2280" x2="610" y2="2280"/><line x1="190" y1="2270" x2="190" y2="2290"/><line x1="610" y1="2270" x2="610" y2="2290"/><text x="400.0" y="2272" font-size="20" text-anchor="middle">420</text>
<line x1="625" y1="2280" x2="1045" y2="2280"/><line x1="625" y1="2270" x2="625" y2="2290"/><line x1="1045" y1="2270" x2="1045" y2="2290"/><text x="835.0" y="2272" font-size="20" text-anchor="middle">420</text>
<line x1="1210" y1="0" x2="1210" y2="2150"/><line x1="1200" y1="0" x2="1220" y2="0"/><line x1="1200" y1="2150" x2="1220" y2="2150"/><text x="1200" y="1075.0" font-size="20" text-anchor="middle" transform="rotate(-90 1200 1075.0)">2150</text>
<line x1="1150" y1="0" x2="1150" y2="430"/><line x1="1140" y1="0" x2="1160" y2="0"/><line x1="1140" y1="430" x2="1160" y2="430"/><text x="1140" y="215.0" font-size="20" text-anchor="middle" transform="rotate(-90 1140 215.0)">430</text>
<line x1="1150" y1="455" x2="1150" y2="950"/><line x1="1140" y1="455" x2="1160" y2="455"/><line x1="1140" y1="950" x2="1160" y2="950"/><text x="1140" y="702.5" font-size="20" text-anchor="middle" transform="rotate(-90 1140 702.5)">495</text>
<line x1="1150" y1="970" x2="1150" y2="2150"/><line x1="1140" y1="970" x2="1160" y2="970"/><line x1="1140" y1="2150" x2="1160" y2="2150"/><text x="1140" y="1560.0" font-size="20" text-anchor="middle" transform="rotate(-90 1140 1560.0)">1180</text>
</g>
<text x="535.0" y="2210" font-size="20" text-anchor="middle" fill="#555" letter-spacing="3">الشارع</text>
</svg>