<svg xmlns="http://www.w3.org/2000/svg" viewBox="-170 -90 1420 2400" width="1420" height="2400" font-family="'IBM Plex Sans','IBM Plex Sans Arabic',-apple-system,'Helvetica Neue',Arial,sans-serif">
<title>Recommended — typical upper floor</title>
<defs>
<pattern id="terrace" width="28" height="28" patternUnits="userSpaceOnUse" patternTransform="rotate(45)"><line x1="0" y1="0" x2="0" y2="28" stroke="#b7c4ca" stroke-width="2"/></pattern>
<pattern id="well" width="20" height="20" patternUnits="userSpaceOnUse"><line x1="0" y1="10" x2="20" y2="10" stroke="#b7c4ca" stroke-width="1.5"/><line x1="10" y1="0" x2="10" y2="20" stroke="#b7c4ca" stroke-width="1.5"/></pattern>
</defs>
<rect x="-170" y="-90" width="1420" height="2400" fill="#fff"/>
<g id="fill" >
<rect x="25" y="25" width="515" height="405" fill="#fff" stroke="#1c2a33" stroke-width="3" stroke-dasharray="18 10"/><line x1="25" y1="25" x2="540" y2="430" stroke="#aebcc3" stroke-width="2"/><line x1="540" y1="25" x2="25" y2="430" stroke="#aebcc3" stroke-width="2"/>
<rect x="565" y="8" width="497" height="422" fill="url(#terrace)"/>
</g>
<g id="wall" fill="#1c2a33">
<rect x="0" y="430" width="25" height="1720"/>
<rect x="1045" y="430" width="25" height="1720"/>
<rect x="0" y="430" width="1070" height="25"/>
<rect x="0" y="0" width="8" height="430"/>
<rect x="1062" y="0" width="8" height="430"/>
<rect x="0" y="0" width="1070" height="8"/>
<rect x="540" y="0" width="25" height="455"/>
<rect x="245" y="455" width="15" height="510"/>
<rect x="245" y="965" width="305" height="15"/>
<rect x="0" y="1100" width="550" height="15"/>
<rect x="535" y="980" width="15" height="1170"/>
<rect x="0" y="2125" width="1070" height="25"/>
<rect x="420" y="455" width="10" height="145"/>
<rect x="260" y="600" width="170" height="10"/>
<rect x="570" y="455" width="10" height="510"/>
<rect x="570" y="620" width="160" height="10"/>
<rect x="730" y="455" width="10" height="165"/>
<rect x="235" y="1115" width="10" height="150"/>
<rect x="235" y="1265" width="300" height="10"/>
<rect x="385" y="1115" width="10" height="150"/>
<rect x="25" y="1590" width="510" height="10"/>
<rect x="275" y="1590" width="10" height="560"/>
<rect x="745" y="980" width="10" height="150"/>
<rect x="745" y="1130" width="300" height="10"/>
<rect x="895" y="980" width="10" height="150"/>
<rect x="550" y="1590" width="495" height="10"/>
<rect x="792" y="1590" width="10" height="560"/>
</g>
<g id="open" fill="#fff">
<rect x="40" y="429" width="190" height="27"/>
<rect x="440" y="429" width="90" height="27"/>
<rect x="760" y="429" width="70" height="27"/>
<rect x="850" y="429" width="100" height="27"/>
<rect x="970" y="429" width="60" height="27"/>
<rect x="60" y="2124" width="180" height="27"/>
<rect x="320" y="2124" width="180" height="27"/>
<rect x="590" y="2124" width="180" height="27"/>
<rect x="850" y="2124" width="170" height="27"/>
<rect x="244" y="860" width="17" height="90"/>
<rect x="320" y="599" width="80" height="12"/>
<rect x="569" y="800" width="12" height="90"/>
<rect x="729" y="470" width="12" height="80"/>
<rect x="300" y="1099" width="90" height="17"/>
<rect x="270" y="1264" width="80" height="12"/>
<rect x="420" y="1264" width="80" height="12"/>
<rect x="50" y="1589" width="85" height="12"/>
<rect x="300" y="1589" width="85" height="12"/>
<rect x="534" y="990" width="17" height="90"/>
<rect x="780" y="1129" width="80" height="12"/>
<rect x="930" y="1129" width="80" height="12"/>
<rect x="575" y="1589" width="85" height="12"/>
<rect x="817" y="1589" width="85" height="12"/>
</g>
<g id="glass" fill="none" stroke="#2f8f9d" stroke-width="2.5">
<line x1="40" y1="430" x2="230" y2="430"/><line x1="40" y1="442.5" x2="230" y2="442.5"/><line x1="40" y1="455" x2="230" y2="455"/>
<line x1="440" y1="430" x2="530" y2="430"/><line x1="440" y1="442.5" x2="530" y2="442.5"/><line x1="440" y1="455" x2="530" y2="455"/>
<line x1="760" y1="430" x2="830" y2="430"/><line x1="760" y1="442.5" x2="830" y2="442.5"/><line x1="760" y1="455" x2="830" y2="455"/>
<line x1="970" y1="430" x2="1030" y2="430"/><line x1="970" y1="442.5" x2="1030" y2="442.5"/><line x1="970" y1="455" x2="1030" y2="455"/>
<line x1="60" y1="2125" x2="240" y2="2125"/><line x1="60" y1="2137.5" x2="240" y2="2137.5"/><line x1="60" y1="2150" x2="240" y2="2150"/>
<line x1="320" y1="2125" x2="500" y2="2125"/><line x1="320" y1="2137.5" x2="500" y2="2137.5"/><line x1="320" y1="2150" x2="500" y2="2150"/>
<line x1="590" y1="2125" x2="770" y2="2125"/><line x1="590" y1="2137.5" x2="770" y2="2137.5"/><line x1="590" y1="2150" x2="770" y2="2150"/>
<line x1="850" y1="2125" x2="1020" y2="2125"/><line x1="850" y1="2137.5" x2="1020" y2="2137.5"/><line x1="850" y1="2150" x2="1020" y2="2150"/>
</g>
<g id="door" fill="none" stroke="#1c2a33" stroke-width="2.5">
<line x1="850" y1="430" x2="850" y2="330"/><path d="M850 330 A100 100 0 0 1 950 430"/>
<line x1="260" y1="950" x2="350" y2="950"/><path d="M350 950 A90 90 0 0 0 260 860"/>
<line x1="320" y1="600" x2="320" y2="520"/><path d="M320 520 A80 80 0 0 1 400 600"/>
<line x1="580" y1="890" x2="670" y2="890"/><path d="M670 890 A90 90 0 0 0 580 800"/>
<line x1="730" y1="470" x2="650" y2="470"/><path d="M650 470 A80 80 0 0 0 730 550"/>
<line x1="300" y1="1115" x2="300" y2="1205"/><path d="M300 1205 A90 90 0 0 0 390 1115"/>
<line x1="270" y1="1265" x2="270" y2="1185"/><path d="M270 1185 A80 80 0 0 1 350 1265"/>
<line x1="420" y1="1265" x2="420" y2="1185"/><path d="M420 1185 A80 80 0 0 1 500 1265"/>
<line x1="50" y1="1600" x2="50" y2="1685"/><path d="M50 1685 A85 85 0 0 0 135 1600"/>
<line x1="300" y1="1600" x2="300" y2="1685"/><path d="M300 1685 A85 85 0 0 0 385 1600"/>
<line x1="550" y1="990" x2="640" y2="990"/><path d="M640 990 A90 90 0 0 1 550 1080"/>
<line x1="780" y1="1130" x2="780" y2="1050"/><path d="M780 1050 A80 80 0 0 1 860 1130"/>
<line x1="930" y1="1130" x2="930" y2="1050"/><path d="M930 1050 A80 80 0 0 1 1010 1130"/>
<line x1="575" y1="1600" x2="575" y2="1685"/><path d="M575 1685 A85 85 0 0 0 660 1600"/>
<line x1="817" y1="1600" x2="817" y2="1685"/><path d="M817 1685 A85 85 0 0 0 902 1600"/>
</g>
<g id="furn" fill="#fff" stroke="#5f7079" stroke-width="2.2" stroke-linejoin="round">
<rect x="25.0" y="575" width="105.0" height="270" fill="none"/>
<line x1="25.0" y1="602" x2="130.0" y2="602"/>
<line x1="25.0" y1="629" x2="130.0" y2="629"/>
<line x1="25.0" y1="656" x2="130.0" y2="656"/>
<line x1="25.0" y1="683" x2="130.0" y2="683"/>
<line x1="25.0" y1="710" x2="130.0" y2="710"/>
<line x1="25.0" y1="737" x2="130.0" y2="737"/>
<line x1="25.0" y1="764" x2="130.0" y2="764"/>
<line x1="25.0" y1="791" x2="130.0" y2="791"/>
<line x1="25.0" y1="818" x2="130.0" y2="818"/>
<rect x="140.0" y="575" width="105.0" height="270" fill="none"/>
<line x1="140.0" y1="602" x2="245.0" y2="602"/>
<line x1="140.0" y1="629" x2="245.0" y2="629"/>
<line x1="140.0" y1="656" x2="245.0" y2="656"/>
<line x1="140.0" y1="683" x2="245.0" y2="683"/>
<line x1="140.0" y1="710" x2="245.0" y2="710"/>
<line x1="140.0" y1="737" x2="245.0" y2="737"/>
<line x1="140.0" y1="764" x2="245.0" y2="764"/>
<line x1="140.0" y1="791" x2="245.0" y2="791"/>
<line x1="140.0" y1="818" x2="245.0" y2="818"/>
<line x1="25" y1="575" x2="245" y2="575"/>
<rect x="130.0" y="575" width="10" height="270" fill="#1c2a33"/>
<line x1="192.5" y1="885" x2="192.5" y2="605" stroke-width="3"/><path d="M180.5 627 L192.5 605 L204.5 627" fill="none" stroke-width="3"/>
<rect x="265" y="460" width="150" height="40" rx="0" />
<line x1="305" y1="460" x2="305" y2="500" stroke="#aebcc3"/>
<line x1="345" y1="460" x2="345" y2="500" stroke="#aebcc3"/>
<g transform="translate(655 500) rotate(0)"><rect x="-25" y="-38" width="50" height="18" rx="3"/><ellipse cx="0" cy="8" rx="19" ry="26"/></g>
<g transform="translate(700 590) rotate(90)"><rect x="-27" y="-18" width="54" height="36" rx="4"/><circle cx="0" cy="2" r="11"/></g>
<rect x="270" y="640" width="60" height="240" rx="10" />
<line x1="284" y1="644" x2="284" y2="876"/>
<line x1="286" y1="700.0" x2="326" y2="700.0"/>
<line x1="286" y1="760.0" x2="326" y2="760.0"/>
<line x1="286" y1="820.0" x2="326" y2="820.0"/>
<rect x="400" y="640" width="160" height="60" rx="0" />
<rect x="406" y="646" width="148" height="48" rx="0" stroke="#aebcc3"/>
<g transform="translate(480 730) rotate(0)"><rect x="-22" y="-20" width="44" height="42" rx="8"/><line x1="-22" y1="-20" x2="22" y2="-20" stroke-width="5"/></g>
<g stroke="#3e8a4a" fill="#dcefd9"><circle cx="540" cy="930" r="22"/><circle cx="540" cy="930" r="9.9" fill="none" stroke-width="1.5"/></g>
<g transform="translate(830 780) rotate(90)"><rect x="-31" y="-80" width="62" height="165" rx="26"/><rect x="-16" y="-104" width="32" height="28" rx="10"/><line x1="-31" y1="-10" x2="31" y2="-10"/><line x1="-31" y1="40" x2="31" y2="40"/><rect x="42" y="-30" width="44" height="34" rx="6"/><circle cx="52" cy="-62" r="13"/><line x1="-38" y1="-120" x2="-70" y2="-150"/><circle cx="-76" cy="-158" r="14"/><circle cx="-48" cy="-118" r="18"/><circle cx="60" cy="30" r="18"/></g>
<rect x="800" y="900" width="230" height="50" rx="0" />
<rect x="806" y="906" width="218" height="38" rx="0" stroke="#aebcc3"/>
<g transform="translate(915 925) rotate(0)"><rect x="-27" y="-18" width="54" height="36" rx="4"/><circle cx="0" cy="2" r="11"/></g>
<rect x="240" y="1120" width="140" height="50" rx="0" />
<rect x="246" y="1126" width="128" height="38" rx="0" stroke="#aebcc3"/>
<g transform="translate(285 1145) rotate(0)"><rect x="-27" y="-18" width="54" height="36" rx="4"/><circle cx="0" cy="2" r="11"/></g>
<rect x="335" y="1123" width="42" height="42" rx="4" />
<g transform="translate(490 1160) rotate(0)"><rect x="-25" y="-38" width="50" height="18" rx="3"/><ellipse cx="0" cy="8" rx="19" ry="26"/></g>
<g transform="translate(415 1235) rotate(270)"><rect x="-27" y="-18" width="54" height="36" rx="4"/><circle cx="0" cy="2" r="11"/></g>
<rect x="40" y="1225" width="150" height="55" rx="0" />
<rect x="46" y="1231" width="138" height="43" rx="0" stroke="#aebcc3"/>
<g transform="translate(115 1310) rotate(0)"><rect x="-22" y="-20" width="44" height="42" rx="8"/><line x1="-22" y1="-20" x2="22" y2="-20" stroke-width="5"/></g>
<rect x="40" y="1365" width="60" height="260" rx="10" />
<line x1="54" y1="1369" x2="54" y2="1621"/>
<line x1="56" y1="1430.0" x2="96" y2="1430.0"/>
<line x1="56" y1="1495.0" x2="96" y2="1495.0"/>
<line x1="56" y1="1560.0" x2="96" y2="1560.0"/>
<rect x="125" y="1510" width="240" height="60" rx="10" />
<line x1="129" y1="1556" x2="361" y2="1556"/>
<line x1="185.0" y1="1526" x2="185.0" y2="1566"/>
<line x1="245.0" y1="1526" x2="245.0" y2="1566"/>
<line x1="305.0" y1="1526" x2="305.0" y2="1566"/>
<g stroke="#3e8a4a" fill="#dcefd9"><circle cx="495" cy="1315" r="22"/><circle cx="495" cy="1315" r="9.9" fill="none" stroke-width="1.5"/></g>
<g transform="translate(160 1890) rotate(0)"><rect x="-31" y="-80" width="62" height="165" rx="26"/><rect x="-16" y="-104" width="32" height="28" rx="10"/><line x1="-31" y1="-10" x2="31" y2="-10"/><line x1="-31" y1="40" x2="31" y2="40"/><rect x="42" y="-30" width="44" height="34" rx="6"/><circle cx="52" cy="-62" r="13"/><line x1="-38" y1="-120" x2="-70" y2="-150"/><circle cx="-76" cy="-158" r="14"/><circle cx="-48" cy="-118" r="18"/><circle cx="60" cy="30" r="18"/></g>
<rect x="35" y="2070" width="230" height="50" rx="0" />
<rect x="41" y="2076" width="218" height="38" rx="0" stroke="#aebcc3"/>
<g transform="translate(150 2095) rotate(0)"><rect x="-27" y="-18" width="54" height="36" rx="4"/><circle cx="0" cy="2" r="11"/></g>
<g transform="translate(420 1890) rotate(0)"><rect x="-31" y="-80" width="62" height="165" rx="26"/><rect x="-16" y="-104" width="32" height="28" rx="10"/><line x1="-31" y1="-10" x2="31" y2="-10"/><line x1="-31" y1="40" x2="31" y2="40"/><rect x="42" y="-30" width="44" height="34" rx="6"/><circle cx="52" cy="-62" r="13"/><line x1="-38" y1="-120" x2="-70" y2="-150"/><circle cx="-76" cy="-158" r="14"/><circle cx="-48" cy="-118" r="18"/><circle cx="60" cy="30" r="18"/></g>
<rect x="295" y="2070" width="230" height="50" rx="0" />
<rect x="301" y="2076" width="218" height="38" rx="0" stroke="#aebcc3"/>
<g transform="translate(410 2095) rotate(0)"><rect x="-27" y="-18" width="54" height="36" rx="4"/><circle cx="0" cy="2" r="11"/></g>
<rect x="750" y="985" width="140" height="50" rx="0" />
<rect x="756" y="991" width="128" height="38" rx="0" stroke="#aebcc3"/>
<g transform="translate(795 1010) rotate(0)"><rect x="-27" y="-18" width="54" height="36" rx="4"/><circle cx="0" cy="2" r="11"/></g>
<rect x="845" y="988" width="42" height="42" rx="4" />
<g transform="translate(1000 1025) rotate(0)"><rect x="-25" y="-38" width="50" height="18" rx="3"/><ellipse cx="0" cy="8" rx="19" ry="26"/></g>
<g transform="translate(925 1100) rotate(270)"><rect x="-27" y="-18" width="54" height="36" rx="4"/><circle cx="0" cy="2" r="11"/></g>
<rect x="565" y="1100" width="150" height="55" rx="0" />
<rect x="571" y="1106" width="138" height="43" rx="0" stroke="#aebcc3"/>
<g transform="translate(640 1185) rotate(0)"><rect x="-22" y="-20" width="44" height="42" rx="8"/><line x1="-22" y1="-20" x2="22" y2="-20" stroke-width="5"/></g>
<rect x="565" y="1230" width="60" height="260" rx="10" />
<line x1="579" y1="1234" x2="579" y2="1486"/>
<line x1="581" y1="1295.0" x2="621" y2="1295.0"/>
<line x1="581" y1="1360.0" x2="621" y2="1360.0"/>
<line x1="581" y1="1425.0" x2="621" y2="1425.0"/>
<rect x="650" y="1510" width="240" height="60" rx="10" />
<line x1="654" y1="1556" x2="886" y2="1556"/>
<line x1="710.0" y1="1526" x2="710.0" y2="1566"/>
<line x1="770.0" y1="1526" x2="770.0" y2="1566"/>
<line x1="830.0" y1="1526" x2="830.0" y2="1566"/>
<g stroke="#3e8a4a" fill="#dcefd9"><circle cx="1005" cy="1180" r="22"/><circle cx="1005" cy="1180" r="9.9" fill="none" stroke-width="1.5"/></g>
<g transform="translate(681 1890) rotate(0)"><rect x="-31" y="-80" width="62" height="165" rx="26"/><rect x="-16" y="-104" width="32" height="28" rx="10"/><line x1="-31" y1="-10" x2="31" y2="-10"/><line x1="-31" y1="40" x2="31" y2="40"/><rect x="42" y="-30" width="44" height="34" rx="6"/><circle cx="52" cy="-62" r="13"/><line x1="-38" y1="-120" x2="-70" y2="-150"/><circle cx="-76" cy="-158" r="14"/><circle cx="-48" cy="-118" r="18"/><circle cx="60" cy="30" r="18"/></g>
<rect x="560" y="2070" width="222" height="50" rx="0" />
<rect x="566" y="2076" width="210" height="38" rx="0" stroke="#aebcc3"/>
<g transform="translate(671 2095) rotate(0)"><rect x="-27" y="-18" width="54" height="36" rx="4"/><circle cx="0" cy="2" r="11"/></g>
<g transform="translate(933 1890) rotate(0)"><rect x="-31" y="-80" width="62" height="165" rx="26"/><rect x="-16" y="-104" width="32" height="28" rx="10"/><line x1="-31" y1="-10" x2="31" y2="-10"/><line x1="-31" y1="40" x2="31" y2="40"/><rect x="42" y="-30" width="44" height="34" rx="6"/><circle cx="52" cy="-62" r="13"/><line x1="-38" y1="-120" x2="-70" y2="-150"/><circle cx="-76" cy="-158" r="14"/><circle cx="-48" cy="-118" r="18"/><circle cx="60" cy="30" r="18"/></g>
<rect x="812" y="2070" width="223" height="50" rx="0" />
<rect x="818" y="2076" width="211" height="38" rx="0" stroke="#aebcc3"/>
<g transform="translate(923 2095) rotate(0)"><rect x="-27" y="-18" width="54" height="36" rx="4"/><circle cx="0" cy="2" r="11"/></g>
</g>
<g id="text" >
<text x="135" y="920" font-size="22" font-weight="500" text-anchor="middle" fill="#1c2a33">درج</text>
<text x="135" y="938.7" font-size="15.399999999999999" font-weight="400" text-anchor="middle" fill="#5f7079">Stair · daylit</text>
<text x="390" y="1052" font-size="20" font-weight="500" text-anchor="middle" fill="#1c2a33">ممر</text>
<text x="390" y="1069.0" font-size="14.0" font-weight="400" text-anchor="middle" fill="#5f7079">Corridor 1.20</text>
<text x="430" y="790" font-size="34" font-weight="600" text-anchor="middle" fill="#1c2a33">عيادة خلفية</text>
<text x="430" y="826" font-size="30" font-weight="500" text-anchor="middle" fill="#1c2a33">45 m²</text>
<text x="430" y="854" font-size="22" font-weight="400" text-anchor="middle" fill="#5f7079">Rear suite</text>
<text x="340" y="540" font-size="18" font-weight="500" text-anchor="middle" fill="#1c2a33">مخزن</text>
<text x="340" y="555.3" font-size="12.6" font-weight="400" text-anchor="middle" fill="#5f7079">Store</text>
<text x="655" y="470" font-size="18" font-weight="500" text-anchor="middle" fill="#1c2a33">حمام</text>
<text x="805" y="330" font-size="26" font-weight="500" text-anchor="middle" fill="#1c2a33">تراس</text>
<text x="805" y="352.1" font-size="18.2" font-weight="400" text-anchor="middle" fill="#5f7079">Terrace</text>
<text x="282" y="240" font-size="26" font-weight="500" text-anchor="middle" fill="#1c2a33">منور</text>
<text x="282" y="262.1" font-size="18.2" font-weight="400" text-anchor="middle" fill="#5f7079">Lightwell · open</text>
<text x="310" y="1225" font-size="16" font-weight="500" text-anchor="middle" fill="#1c2a33">تعقيم</text>
<text x="423" y="1175" font-size="16" font-weight="500" text-anchor="middle" fill="#1c2a33">حمام</text>
<text x="236" y="1642" font-size="18" font-weight="500" text-anchor="middle" fill="#1c2a33">علاج ١</text>
<text x="236" y="1657.3" font-size="12.6" font-weight="400" text-anchor="middle" fill="#5f7079">Treatment 1</text>
<text x="496" y="1642" font-size="18" font-weight="500" text-anchor="middle" fill="#1c2a33">علاج ٢</text>
<text x="496" y="1657.3" font-size="12.6" font-weight="400" text-anchor="middle" fill="#5f7079">Treatment 2</text>
<text x="280" y="1445" font-size="34" font-weight="600" text-anchor="middle" fill="#1c2a33">عيادة أ</text>
<text x="280" y="1481" font-size="30" font-weight="500" text-anchor="middle" fill="#1c2a33">53 m²</text>
<text x="280" y="1509" font-size="22" font-weight="400" text-anchor="middle" fill="#5f7079">Suite A · 5.10 × 10.35</text>
<text x="820" y="1090" font-size="16" font-weight="500" text-anchor="middle" fill="#1c2a33">تعقيم</text>
<text x="933" y="1040" font-size="16" font-weight="500" text-anchor="middle" fill="#1c2a33">حمام</text>
<text x="755" y="1642" font-size="18" font-weight="500" text-anchor="middle" fill="#1c2a33">علاج ١</text>
<text x="755" y="1657.3" font-size="12.6" font-weight="400" text-anchor="middle" fill="#5f7079">Treatment 1</text>
<text x="1007" y="1642" font-size="18" font-weight="500" text-anchor="middle" fill="#1c2a33">علاج ٢</text>
<text x="1007" y="1657.3" font-size="12.6" font-weight="400" text-anchor="middle" fill="#5f7079">Treatment 2</text>
<text x="797" y="1360" font-size="34" font-weight="600" text-anchor="middle" fill="#1c2a33">عيادة ب</text>
<text x="797" y="1396" font-size="30" font-weight="500" text-anchor="middle" fill="#1c2a33">58 m²</text>
<text x="797" y="1424" font-size="22" font-weight="400" text-anchor="middle" fill="#5f7079">Suite B · 4.95 × 11.70</text>
</g>
<g id="dim" fill="#6f8590" stroke="#6f8590" stroke-width="1.5">
<line x1="0" y1="2340" x2="1070" y2="2340"/><line x1="0" y1="2330" x2="0" y2="2350"/><line x1="1070" y1="2330" x2="1070" y2="2350"/><text x="535.0" y="2332" font-size="24" text-anchor="middle">10.70</text>
<line x1="25" y1="2280" x2="535" y2="2280"/><line x1="25" y1="2270" x2="25" y2="2290"/><line x1="535" y1="2270" x2="535" y2="2290"/><text x="280.0" y="2272" font-size="24" text-anchor="middle">5.10</text>
<line x1="550" y1="2280" x2="1045" y2="2280"/><line x1="550" y1="2270" x2="550" y2="2290"/><line x1="1045" y1="2270" x2="1045" y2="2290"/><text x="797.5" y="2272" font-size="24" text-anchor="middle">4.95</text>
<line x1="1210" y1="0" x2="1210" y2="2150"/><line x1="1200" y1="0" x2="1220" y2="0"/><line x1="1200" y1="2150" x2="1220" y2="2150"/><text x="1200" y="1075.0" font-size="24" text-anchor="middle" transform="rotate(-90 1200 1075.0)">21.50</text>
<line x1="1150" y1="0" x2="1150" y2="430"/><line x1="1140" y1="0" x2="1160" y2="0"/><line x1="1140" y1="430" x2="1160" y2="430"/><text x="1140" y="215.0" font-size="24" text-anchor="middle" transform="rotate(-90 1140 215.0)">4.30</text>
<line x1="1150" y1="455" x2="1150" y2="965"/><line x1="1140" y1="455" x2="1160" y2="455"/><line x1="1140" y1="965" x2="1160" y2="965"/><text x="1140" y="710.0" font-size="24" text-anchor="middle" transform="rotate(-90 1140 710.0)">5.10</text>
<line x1="1150" y1="980" x2="1150" y2="1100"/><line x1="1140" y1="980" x2="1160" y2="980"/><line x1="1140" y1="1100" x2="1160" y2="1100"/><text x="1140" y="1040.0" font-size="24" text-anchor="middle" transform="rotate(-90 1140 1040.0)">1.20</text>
<line x1="1150" y1="1115" x2="1150" y2="2150"/><line x1="1140" y1="1115" x2="1160" y2="1115"/><line x1="1140" y1="2150" x2="1160" y2="2150"/><text x="1140" y="1632.5" font-size="24" text-anchor="middle" transform="rotate(-90 1140 1632.5)">10.35</text>
</g>
<text x="535.0" y="2220" font-size="30" font-weight="500" text-anchor="middle" fill="#6f8590" letter-spacing="4">STREET · الشارع</text>
</svg>